<?xml version="1.0" standalone="no"?>
<!DOCTYPE svg PUBLIC "-//W3C//DTD SVG 20010904//EN"
 "http://www.w3.org/TR/2001/REC-SVG-20010904/DTD/svg10.dtd">
<svg version="1.0" xmlns="http://www.w3.org/2000/svg"
 width="235.000000pt" height="235.000000pt" viewBox="0 0 235.000000 235.000000"
 preserveAspectRatio="xMidYMid meet">
<metadata>
Created by potrace 1.11, written by Peter Selinger 2001-2013
</metadata>
<g transform="translate(0.000000,235.000000) scale(0.100000,-0.100000)"
fill="#000000" stroke="none">
<path d="M989 2346 c-2 -2 -41 -7 -87 -10 -46 -4 -89 -9 -95 -11 -7 -3 -30 -7
-52 -9 -85 -11 -115 -16 -211 -37 -54 -11 -108 -23 -119 -25 -11 -3 -24 -6
-30 -7 -5 -2 -58 -16 -118 -31 l-107 -29 0 -649 c0 -740 -5 -692 91 -834 55
-82 209 -244 319 -335 36 -30 67 -56 70 -59 3 -3 46 -35 95 -72 168 -123 345
-224 409 -232 24 -3 53 4 97 25 74 35 183 99 187 111 2 4 8 8 13 8 6 0 54 32
107 72 294 217 520 453 582 608 22 55 23 58 23 703 0 356 -2 649 -4 652 -20
19 -503 125 -643 141 -28 3 -62 8 -76 11 -28 5 -446 14 -451 9z"/>
</g>
</svg>
